<svg xmlns="http://www.w3.org/2000/svg" xmlns:xlink="http://www.w3.org/1999/xlink" viewBox="0 0 469.2 486.92"><defs><mask id="mask" x="0" y="0" width="469.2" height="486.92" maskUnits="userSpaceOnUse"><g transform="translate(-77.1 -68.35)"><rect x="249.45" y="249.45" width="124.72" height="124.72" style="fill:#fff"/></g></mask></defs><g id="Layer_1" data-name="Layer 1"><rect x="47.63" y="56.37" width="24.09" height="374.17" style="fill:#221f20"/><rect x="79.43" y="56.37" width="24.09" height="374.17" style="fill:#221f20"/><rect x="111.24" y="56.37" width="24.09" height="374.17" style="fill:#221f20"/><rect x="143.04" y="56.37" width="24.09" height="374.17" style="fill:#221f20"/><rect x="174.85" y="56.37" width="24.09" height="374.17" style="fill:#221f20"/><rect x="206.65" y="56.37" width="24.09" height="374.17" style="fill:#221f20"/><rect x="238.46" y="56.37" width="24.09" height="374.17" style="fill:#221f20"/><rect x="270.26" y="56.37" width="24.09" height="374.17" style="fill:#221f20"/><rect x="302.06" y="56.37" width="24.09" height="374.17" style="fill:#221f20"/><rect x="333.87" y="56.37" width="24.09" height="374.17" style="fill:#221f20"/><rect x="365.67" y="56.37" width="24.09" height="374.17" style="fill:#221f20"/><rect x="397.48" y="56.37" width="24.09" height="374.17" style="fill:#221f20"/></g><g id="Layer_2" data-name="Layer 2"><rect x="47.63" y="56.37" width="24.09" height="374.17" style="fill:#221f20"/><rect x="79.43" y="56.37" width="24.09" height="374.17" style="fill:#221f20"/><rect x="111.24" y="56.37" width="24.09" height="374.17" style="fill:#221f20"/><rect x="143.04" y="56.37" width="24.09" height="374.17" style="fill:#221f20"/><rect x="174.85" y="56.37" width="24.09" height="374.17" style="fill:#221f20"/><rect x="206.65" y="56.37" width="24.09" height="374.17" style="fill:#221f20"/><rect x="238.46" y="56.37" width="24.09" height="374.17" style="fill:#221f20"/><rect x="270.26" y="56.37" width="24.09" height="374.17" style="fill:#221f20"/><rect x="302.06" y="56.37" width="24.09" height="374.17" style="fill:#221f20"/><rect x="333.87" y="56.37" width="24.09" height="374.17" style="fill:#221f20"/><rect x="365.67" y="56.37" width="24.09" height="374.17" style="fill:#221f20"/><rect x="397.48" y="56.37" width="24.09" height="374.17" style="fill:#221f20"/><g style="mask:url(#mask)"><rect x="170.12" y="204.24" width="7.71" height="374.17" transform="translate(-249.45 71.07) rotate(-30)" style="fill:#fff"/><rect x="197.67" y="188.33" width="7.71" height="374.17" transform="translate(-237.81 82.71) rotate(-30)" style="fill:#fff"/><rect x="225.21" y="172.43" width="7.71" height="374.17" transform="translate(-226.17 94.35) rotate(-30)" style="fill:#fff"/><rect x="252.76" y="156.53" width="7.71" height="374.17" transform="translate(-214.53 105.99) rotate(-30)" style="fill:#fff"/><rect x="280.3" y="140.63" width="7.71" height="374.17" transform="translate(-202.88 117.63) rotate(-30)" style="fill:#fff"/><rect x="307.84" y="124.72" width="7.71" height="374.17" transform="translate(-191.24 129.27) rotate(-30)" style="fill:#fff"/><rect x="335.39" y="108.82" width="7.71" height="374.17" transform="translate(-179.6 140.91) rotate(-30)" style="fill:#fff"/><rect x="362.93" y="92.92" width="7.71" height="374.17" transform="translate(-167.96 152.56) rotate(-30)" style="fill:#fff"/><rect x="390.47" y="77.02" width="7.71" height="374.17" transform="translate(-156.32 164.2) rotate(-30)" style="fill:#fff"/><rect x="418.02" y="61.12" width="7.71" height="374.17" transform="translate(-144.68 175.84) rotate(-30)" style="fill:#fff"/><rect x="445.56" y="45.21" width="7.71" height="374.17" transform="translate(-133.04 187.48) rotate(-30)" style="fill:#fff"/></g></g></svg>